<mxfile host="65bd71144e">
    <diagram id="GInHtZuMB5CcCfA9ihm7" name="Page-1">
        <mxGraphModel dx="832" dy="572" grid="1" gridSize="10" guides="1" tooltips="1" connect="1" arrows="1" fold="1" page="1" pageScale="1" pageWidth="850" pageHeight="1100" math="0" shadow="0">
            <root>
                <mxCell id="0"/>
                <mxCell id="1" parent="0"/>
                <mxCell id="7" style="edgeStyle=none;html=1;" parent="1" source="2" target="3" edge="1">
                    <mxGeometry relative="1" as="geometry"/>
                </mxCell>
                <mxCell id="2" value="Start" style="strokeWidth=2;html=1;shape=mxgraph.flowchart.terminator;whiteSpace=wrap;" parent="1" vertex="1">
                    <mxGeometry x="300" y="260" width="100" height="60" as="geometry"/>
                </mxCell>
                <mxCell id="11" value="" style="edgeStyle=none;html=1;" edge="1" parent="1" source="3" target="10">
                    <mxGeometry relative="1" as="geometry"/>
                </mxCell>
                <mxCell id="3" value="the number &lt;br&gt;you want" style="shape=parallelogram;html=1;strokeWidth=2;perimeter=parallelogramPerimeter;whiteSpace=wrap;rounded=1;arcSize=12;size=0.23;" parent="1" vertex="1">
                    <mxGeometry x="300" y="360" width="100" height="60" as="geometry"/>
                </mxCell>
                <mxCell id="6" value="Stop" style="strokeWidth=2;html=1;shape=mxgraph.flowchart.terminator;whiteSpace=wrap;" parent="1" vertex="1">
                    <mxGeometry x="560" y="670" width="100" height="60" as="geometry"/>
                </mxCell>
                <mxCell id="13" value="" style="edgeStyle=none;html=1;" edge="1" parent="1" source="10" target="12">
                    <mxGeometry relative="1" as="geometry"/>
                </mxCell>
                <mxCell id="17" value="" style="edgeStyle=none;rounded=0;html=1;" edge="1" parent="1" source="10" target="16">
                    <mxGeometry relative="1" as="geometry"/>
                </mxCell>
                <mxCell id="10" value="if(n &amp;lt;= 0)" style="rhombus;whiteSpace=wrap;html=1;strokeWidth=2;rounded=0;arcSize=12;" vertex="1" parent="1">
                    <mxGeometry x="307.5" y="460" width="85" height="80" as="geometry"/>
                </mxCell>
                <mxCell id="15" style="edgeStyle=none;html=1;exitX=1;exitY=0.5;exitDx=0;exitDy=0;entryX=0.5;entryY=0;entryDx=0;entryDy=0;entryPerimeter=0;rounded=0;" edge="1" parent="1" source="12" target="6">
                    <mxGeometry relative="1" as="geometry">
                        <Array as="points">
                            <mxPoint x="610" y="500"/>
                        </Array>
                    </mxGeometry>
                </mxCell>
                <mxCell id="12" value="document.getElementById\(&quot;fibonacciAns&quot;).innerHTML = &quot;Invalid Input&quot;" style="shape=parallelogram;perimeter=parallelogramPerimeter;whiteSpace=wrap;html=1;fixedSize=1;strokeWidth=2;rounded=0;arcSize=12;" vertex="1" parent="1">
                    <mxGeometry x="425" y="460" width="175" height="80" as="geometry"/>
                </mxCell>
                <mxCell id="14" value="yes" style="text;html=1;align=center;verticalAlign=middle;resizable=0;points=[];autosize=1;strokeColor=none;fillColor=none;" vertex="1" parent="1">
                    <mxGeometry x="400" y="475" width="40" height="30" as="geometry"/>
                </mxCell>
                <mxCell id="25" style="edgeStyle=none;rounded=0;html=1;exitX=1;exitY=0.5;exitDx=0;exitDy=0;entryX=0.5;entryY=0;entryDx=0;entryDy=0;entryPerimeter=0;" edge="1" parent="1" source="16" target="6">
                    <mxGeometry relative="1" as="geometry">
                        <Array as="points">
                            <mxPoint x="430" y="640"/>
                            <mxPoint x="450" y="640"/>
                            <mxPoint x="560" y="640"/>
                            <mxPoint x="610" y="640"/>
                            <mxPoint x="610" y="660"/>
                        </Array>
                    </mxGeometry>
                </mxCell>
                <mxCell id="27" value="" style="edgeStyle=none;rounded=0;html=1;" edge="1" parent="1" source="16" target="26">
                    <mxGeometry relative="1" as="geometry"/>
                </mxCell>
                <mxCell id="16" value="for(let i = 1;&lt;br&gt;&amp;nbsp;i &amp;lt; n; i++)" style="rhombus;whiteSpace=wrap;html=1;strokeWidth=2;rounded=0;arcSize=12;" vertex="1" parent="1">
                    <mxGeometry x="298.75" y="590" width="102.5" height="100" as="geometry"/>
                </mxCell>
                <mxCell id="21" value="no" style="text;html=1;align=center;verticalAlign=middle;resizable=0;points=[];autosize=1;strokeColor=none;fillColor=none;" vertex="1" parent="1">
                    <mxGeometry x="352.5" y="535" width="40" height="30" as="geometry"/>
                </mxCell>
                <mxCell id="28" style="edgeStyle=none;rounded=0;html=1;exitX=0.5;exitY=0;exitDx=0;exitDy=0;entryX=0.5;entryY=0;entryDx=0;entryDy=0;" edge="1" parent="1" source="26" target="16">
                    <mxGeometry relative="1" as="geometry">
                        <Array as="points">
                            <mxPoint x="190" y="570"/>
                            <mxPoint x="350" y="570"/>
                        </Array>
                    </mxGeometry>
                </mxCell>
                <mxCell id="26" value="&lt;div&gt;next = first + second;&lt;/div&gt;&lt;div&gt;&amp;nbsp; &amp;nbsp; console.log(next);&lt;/div&gt;&lt;div&gt;&amp;nbsp; &amp;nbsp; first = second;&amp;nbsp;&lt;/div&gt;&lt;div&gt;&amp;nbsp; &amp;nbsp; second = next;&lt;/div&gt;" style="shape=parallelogram;perimeter=parallelogramPerimeter;whiteSpace=wrap;html=1;fixedSize=1;strokeWidth=2;rounded=0;arcSize=12;" vertex="1" parent="1">
                    <mxGeometry x="110" y="605" width="160" height="70" as="geometry"/>
                </mxCell>
                <mxCell id="29" value="no" style="text;html=1;align=center;verticalAlign=middle;resizable=0;points=[];autosize=1;strokeColor=none;fillColor=none;" vertex="1" parent="1">
                    <mxGeometry x="270" y="635" width="40" height="30" as="geometry"/>
                </mxCell>
                <mxCell id="30" value="yes" style="text;html=1;align=center;verticalAlign=middle;resizable=0;points=[];autosize=1;strokeColor=none;fillColor=none;" vertex="1" parent="1">
                    <mxGeometry x="400" y="615" width="40" height="30" as="geometry"/>
                </mxCell>
            </root>
        </mxGraphModel>
    </diagram>
</mxfile>